# xmcd
# 
# Track frame offsets:
#	150
#	16075
#	29838
#	46227
#	63513
#	76410
#	87783
#	103560
#	114545
#	133440
#	147568
#	162133
#
# Disc length: 2336 seconds
#
# Revision: 1
# Processed by: cddbd v1.4PL0 Copyright (c) Steve Scherf et al.
# Submitted via: Audio-CD-Archiv 2.10.441
#
DISCID=a2091e0c
DTITLE=Various Artist - Hallo Trucker- Dein Zuhause ist die Autobahn
DYEAR=1900
DGENRE=country
TTITLE0=Linda Feller - Fantasie
TTITLE1=Joe Hodgkins Boss Band - Es gibt immer einen Grund
TTITLE2=Iris McCollins - Spürst du das Fieber
TTITLE3=Gunter Gabriel - Du bist das Gold in meinem Leben
TTITLE4=Country Roads - Dagegen hilft nur Country Music
TTITLE5=Joe Hodgkins Boss Band - Countrymusic made in Germany
TTITLE6=Queens of Heart - Hallo Trucker
TTITLE7=Trucks aus dem Zillertal - Back to Nature
TTITLE8=Mike Herman and Booze Company -  Schwarzes Gold
TTITLE9=Dagmar- The Lady of Country - Ich mag starke Männer
TTITLE10=Hanna and Daana - Ich könnt´ mich immer neu verlieben
TTITLE11=Billy White - Mein Truck hat heute Feiertag
EXTD=
EXTT0=
EXTT1=
EXTT2=
EXTT3=
EXTT4=
EXTT5=
EXTT6=
EXTT7=
EXTT8=
EXTT9=
EXTT10=
EXTT11=
PLAYORDER=
